<svg width="96" height="97" viewBox="0 0 96 97" fill="none" xmlns="http://www.w3.org/2000/svg">
<g clip-path="url(#clip0_715_2030)">
<path fill-rule="evenodd" clip-rule="evenodd" d="M96 75.8846C96 81.3522 93.828 86.5958 89.9619 90.4619C86.0958 94.328 80.8522 96.5 75.3846 96.5H20.6154C15.1478 96.5 9.90423 94.328 6.0381 90.4619C2.17197 86.5958 0 81.3522 0 75.8846V21.1154C0 15.6478 2.17197 10.4042 6.0381 6.5381C9.90423 2.67197 15.1478 0.5 20.6154 0.5H75.3846C80.8522 0.5 86.0958 2.67197 89.9619 6.5381C93.828 10.4042 96 15.6478 96 21.1154V75.8846ZM73.7704 74.6295C73.3298 75.2374 72.5513 75.2394 71.8299 75.2413H71.8297C71.6898 75.2416 71.5519 75.242 71.4192 75.2467C68.0291 75.308 64.6379 75.3063 61.2469 75.3046H61.2438C59.1032 75.3036 56.9626 75.3025 54.8225 75.3173C53.8261 75.3173 53.1178 75.0057 52.6829 74.124C51.7882 72.3199 50.8862 70.5199 49.9842 68.72L49.9841 68.7199C47.674 64.1104 45.3644 59.5018 43.181 54.8264C40.8915 49.9035 40.242 44.575 40.674 39.2025C41.1266 33.6566 42.796 28.4251 45.9025 23.7373L45.9224 23.7074C46.2858 23.1604 46.7246 22.5 47.4837 22.5C48.3419 22.5 48.8033 23.2583 49.109 23.8637C56.4037 38.406 63.6699 52.9621 70.9078 67.5318C71.863 69.4451 72.8593 71.3525 73.8468 73.2423C73.9592 73.4593 74.0115 73.7024 73.998 73.9464C73.9846 74.1903 73.906 74.4262 73.7704 74.6295ZM23.2926 68.6275C22.6053 69.9695 21.918 71.3115 21.2322 72.6545C21.0442 73.16 20.8178 74.174 21.2381 74.7118C21.7025 75.3008 22.6318 75.2874 23.4134 75.2762C23.5173 75.2747 23.6185 75.2732 23.7157 75.2732C26.2023 75.2979 28.6895 75.2957 31.177 75.2935C34.0201 75.291 36.8635 75.2885 39.707 75.3261C41.1618 75.3467 41.8966 74.7883 42.4373 73.4804C44.1155 69.4392 44.2243 65.2658 43.5512 61.0542C42.7107 55.8051 40.6328 51.0791 36.9913 47.135C35.61 45.6243 34.7841 45.7947 33.8466 47.664C32.9861 49.3826 32.1298 51.104 31.2735 52.8256C29.9888 55.4084 28.7039 57.9916 27.4042 60.5663C26.0424 63.2586 24.6675 65.943 23.2926 68.6275Z" fill="#8C8DB2"/>
</g>
<defs>
<clipPath id="clip0_715_2030">
<rect width="96" height="96" fill="white" transform="translate(0 0.5)"/>
</clipPath>
</defs>
</svg>
