<svg width="96" height="97" viewBox="0 0 96 97" fill="none" xmlns="http://www.w3.org/2000/svg">
<g clip-path="url(#clip0_715_2040)">
<path fill-rule="evenodd" clip-rule="evenodd" d="M89.9619 90.4619C93.828 86.5958 96 81.3522 96 75.8846V21.1154C96 15.6478 93.828 10.4042 89.9619 6.5381C86.0958 2.67197 80.8522 0.5 75.3846 0.5H20.6154C15.1478 0.5 9.90423 2.67197 6.0381 6.5381C2.17197 10.4042 0 15.6478 0 21.1154V75.8846C0 81.3522 2.17197 86.5958 6.0381 90.4619C9.90423 94.328 15.1478 96.5 20.6154 96.5H75.3846C80.8522 96.5 86.0958 94.328 89.9619 90.4619ZM23.3533 57.0067C22.5306 58.7803 21.9088 60.6422 22.011 62.4885C22.0041 65.2615 22.638 67.4612 24.1154 69.5414C26.542 72.95 29.935 74.6682 34.0607 74.6439C37.2407 74.6249 40.1402 73.4159 42.6447 71.4622C44.0422 70.3707 45.3422 69.1504 46.6403 67.9321C46.8706 67.7159 47.1008 67.4998 47.3316 67.2845C47.82 66.8238 48.1456 66.777 48.6063 67.2845C49.1848 67.9219 49.8101 68.5195 50.4388 69.1084C52.6627 71.1816 55.0772 72.9586 58.0078 73.9251C61.8511 75.1947 65.5525 74.8656 68.8433 72.4962C73.525 69.1291 75.1635 64.0335 73.1613 58.6278C71.9119 55.257 70.3596 51.9916 68.8128 48.7379C68.6206 48.3337 68.4286 47.9296 68.2371 47.5255C65.5456 41.9022 62.8043 36.302 60.0135 30.7249C58.6521 28.0038 57.2232 25.3088 55.6643 22.6969C55.0717 21.6674 54.2633 20.7783 53.2946 20.0907C52.3259 19.403 51.2199 18.9332 50.0526 18.7132C45.5268 17.8299 41.7111 19.7178 39.501 23.8764C37.291 28.035 35.1052 32.2092 33.0527 36.4475C29.7618 43.2682 26.5524 50.1374 23.3533 57.0067ZM41.7804 41.4201C39.534 43.3063 38.6472 45.8039 38.5796 48.5024C38.6645 51.8729 39.6846 54.8243 41.2781 57.5574C42.3635 59.4185 43.6171 61.1846 44.8673 62.9458C45.0295 63.1745 45.1918 63.403 45.3536 63.6317C45.7658 64.2136 45.8022 64.5618 45.2929 65.0918C43.476 66.9866 41.5968 68.8052 39.2793 70.0852C35.5416 72.1481 31.9442 72.4425 28.5148 69.8722C25.0854 67.3018 24.1553 63.0705 25.9774 58.9465C27.3474 55.8445 28.7469 52.7545 30.2104 49.6975C32.9436 43.9668 35.7189 38.2575 38.5363 32.5695C39.8492 29.9195 41.214 27.2885 42.7192 24.7459C44.3577 21.9746 47.5065 20.9753 50.3401 22.1479C51.6364 22.6683 52.7086 23.6278 53.3694 24.8585C55.24 28.3537 57.095 31.8576 58.8634 35.4065C61.339 40.3994 63.7754 45.4107 66.1726 50.4405C67.5582 53.3452 68.9178 56.2654 70.1562 59.2341C72.7595 65.4797 68.4242 71.916 61.8096 71.6562C59.2912 71.5574 57.0413 70.5581 55.0893 69.0252C54.0028 68.1725 52.9935 67.2216 51.9841 66.2707C51.5502 65.8618 51.1162 65.453 50.6761 65.0519C50.134 64.5618 50.2344 64.1322 50.6761 63.5745C53.4058 60.1278 55.7405 56.4559 56.8854 52.1431C57.5107 49.7806 57.58 47.4459 56.7572 45.1042C55.6453 41.9363 52.3579 39.4543 49.0081 39.2361C46.3114 39.0594 43.8744 39.6587 41.7804 41.4201ZM48.0244 42.4178C51.8227 42.4836 54.2216 44.9621 54.1869 48.7726C54.1869 51.2892 53.288 53.5651 52.0894 55.7007C51.3663 56.9892 50.5374 58.2184 49.7085 59.4477C49.3184 60.0262 48.9283 60.6048 48.5492 61.1895C48.1733 61.7697 47.8217 61.7455 47.4285 61.212C45.3224 58.3611 43.3912 55.4149 42.3225 51.9924C41.8116 50.3591 41.5033 48.7085 41.919 46.9921C42.591 44.2208 45.0487 42.3676 48.0244 42.4178Z" fill="#8C8DB2"/>
</g>
<defs>
<clipPath id="clip0_715_2040">
<rect width="96" height="96" fill="white" transform="translate(0 0.5)"/>
</clipPath>
</defs>
</svg>
