<svg width="96" height="97" viewBox="0 0 96 97" fill="none" xmlns="http://www.w3.org/2000/svg">
<g clip-path="url(#clip0_715_2015)">
<path fill-rule="evenodd" clip-rule="evenodd" d="M89.9619 90.4619C93.828 86.5958 96 81.3522 96 75.8846V21.1154C96 15.6478 93.828 10.4042 89.9619 6.5381C86.0958 2.67197 80.8522 0.5 75.3846 0.5H20.6154C15.1478 0.5 9.90423 2.67197 6.0381 6.5381C2.17197 10.4042 0 15.6478 0 21.1154V75.8846C0 81.3522 2.17197 86.5958 6.0381 90.4619C9.90423 94.328 15.1478 96.5 20.6154 96.5H75.3846C80.8522 96.5 86.0958 94.328 89.9619 90.4619ZM33.5143 77.555H62.5391C62.7687 77.5088 62.9996 77.4655 63.2309 77.4222L63.2318 77.422C63.7164 77.3313 64.2024 77.2402 64.6811 77.1211C69.7955 75.8457 73.4425 72.7813 75.6698 68.0213C76.3204 66.5987 76.746 65.0837 76.9316 63.5304C76.9607 63.3657 76.9986 63.2027 77.0452 63.0421V34.0253C76.9997 33.7974 76.9571 33.5691 76.9146 33.3411V33.341L76.9145 33.3409C76.8223 32.8464 76.7303 32.3531 76.609 31.8673C75.3268 26.7427 72.2602 23.0832 67.4797 20.8741C65.4001 19.9121 63.1887 19.5044 60.8922 19.5044C57.6135 19.5083 54.3349 19.5079 51.0562 19.5075C45.7598 19.5068 40.4633 19.5062 35.1669 19.5237C34.016 19.5199 32.8677 19.6314 31.7391 19.8565C25.4219 21.1604 20.4631 26.2089 19.2887 32.5181C19.1042 33.5394 19.013 34.5753 19.0162 35.6131C19.001 44.2276 18.998 52.842 19.0071 61.4565C19.0184 69.2173 24.3702 75.7434 31.9663 77.271C32.3153 77.3412 32.666 77.4035 33.0164 77.4657C33.1825 77.4952 33.3485 77.5247 33.5143 77.555ZM71.8763 48.5575H71.8524H71.8422C71.8422 49.9491 71.8521 51.3411 71.862 52.7332V52.7334V52.7335C71.8841 55.8395 71.9062 58.9458 71.8183 62.0483C71.6957 66.1791 69.5877 69.2036 65.9873 71.1765C64.3858 72.0544 62.6367 72.3793 60.8104 72.3793C58.9448 72.3773 57.0795 72.3742 55.2144 72.371C48.5577 72.3598 41.9038 72.3487 35.2498 72.3895C29.8026 72.4224 25.3844 68.6199 24.419 63.7292C24.2633 62.8952 24.1872 62.0483 24.1919 61.1998C24.1865 58.1329 24.1903 55.0659 24.1941 51.9989C24.2007 46.6191 24.2073 41.2393 24.1646 35.8596C24.1237 30.6543 27.4436 26.6007 31.579 25.2389C32.7839 24.854 34.0429 24.6657 35.3077 24.6813C37.6278 24.6822 39.9479 24.6858 42.2679 24.6895H42.268H42.2682C48.4307 24.6992 54.593 24.7089 60.7559 24.6676C65.8669 24.6336 69.9307 27.8944 71.3186 32.0729C71.7343 33.3256 71.8763 34.6057 71.8763 35.9163V48.5575ZM48.032 63.4931C39.7806 63.4988 33.0523 56.7636 33.0625 48.51C33.0727 40.2801 39.7852 33.57 48.0139 33.5654C56.2641 33.5654 62.9947 40.296 62.9845 48.5486C62.9743 56.7773 56.2607 63.4886 48.032 63.4931ZM48.0445 38.7559C46.7589 38.7496 45.4847 38.9978 44.2954 39.4861C43.1061 39.9745 42.0251 40.6933 41.1149 41.6012C40.2046 42.5092 39.483 43.5883 38.9916 44.7763C38.5003 45.9644 38.2489 47.2379 38.2519 48.5236C38.2471 49.8044 38.4948 51.0735 38.9809 52.2585C39.467 53.4434 40.1819 54.5209 41.0848 55.4294C41.9876 56.3378 43.0607 57.0594 44.2427 57.5528C45.4246 58.0462 46.6922 58.3018 47.973 58.3049C49.2584 58.3143 50.533 58.0695 51.7235 57.5845C52.9139 57.0995 53.9967 56.3839 54.9096 55.4788C55.8224 54.5738 56.5473 53.4972 57.0425 52.3109C57.5378 51.1247 57.7935 49.8522 57.7952 48.5667C57.8035 47.2811 57.5575 46.0065 57.0712 44.8163C56.5849 43.6262 55.868 42.544 54.9616 41.6321C54.0553 40.7202 52.9776 39.9966 51.7904 39.5029C50.6033 39.0093 49.3302 38.7554 48.0445 38.7559ZM60.9249 35.6371C61.6318 36.3465 62.5908 36.7471 63.5922 36.7513C64.5939 36.7543 65.5562 36.3612 66.2692 35.6576C66.9822 34.9539 67.388 33.9969 67.3982 32.9953C67.4084 30.9407 65.6945 29.2143 63.6229 29.1916C61.5808 29.1688 59.8305 30.9066 59.8203 32.9657C59.8209 33.9672 60.2181 34.9277 60.9249 35.6371Z" fill="#8C8DB2"/>
</g>
<defs>
<clipPath id="clip0_715_2015">
<rect width="96" height="96" fill="white" transform="translate(0 0.5)"/>
</clipPath>
</defs>
</svg>
