<svg width="96" height="97" viewBox="0 0 96 97" fill="none" xmlns="http://www.w3.org/2000/svg">
<g clip-path="url(#clip0_715_2020)">
<path fill-rule="evenodd" clip-rule="evenodd" d="M89.9619 90.4619C93.828 86.5958 96 81.3522 96 75.8846V21.1154C96 15.6478 93.828 10.4042 89.9619 6.5381C86.0958 2.67197 80.8522 0.5 75.3846 0.5H20.6154C15.1478 0.5 9.90423 2.67197 6.0381 6.5381C2.17197 10.4042 0 15.6478 0 21.1154V75.8846C0 81.3522 2.17197 86.5958 6.0381 90.4619C9.90423 94.328 15.1478 96.5 20.6154 96.5H75.3846C80.8522 96.5 86.0958 94.328 89.9619 90.4619ZM64 20.5H53.3341C53.3359 20.5617 53.3384 20.6234 53.3409 20.685C53.3458 20.8085 53.3508 20.9319 53.3508 21.0553V48.2062V48.7537L53.2505 48.7804C53.2282 48.7305 53.205 48.681 53.1819 48.6315C53.1331 48.5271 53.0843 48.4228 53.0442 48.3155C49.6249 39.186 46.203 30.0554 42.7785 20.9237C42.7482 20.8356 42.7263 20.7432 42.7043 20.6506C42.6924 20.6003 42.6804 20.5499 42.667 20.5H32C32.0019 20.5689 32.0042 20.6379 32.0065 20.7068C32.0122 20.8786 32.0178 21.0503 32.0178 21.2214V76.7308V77.4221H42.6325V49.2387L42.7863 49.1997L53.3653 77.45H59.3383C60.4145 77.4523 61.4908 77.4594 62.5667 77.4665C63.0446 77.4697 63.5223 77.4729 64 77.4756V20.5Z" fill="#8C8DB2"/>
</g>
<defs>
<clipPath id="clip0_715_2020">
<rect width="96" height="96" fill="white" transform="translate(0 0.5)"/>
</clipPath>
</defs>
</svg>
