<svg width="96" height="97" viewBox="0 0 96 97" fill="none" xmlns="http://www.w3.org/2000/svg">
<g clip-path="url(#clip0_715_2035)">
<path fill-rule="evenodd" clip-rule="evenodd" d="M89.9619 90.4619C93.828 86.5958 96 81.3522 96 75.8846V21.1154C96 15.6478 93.828 10.4042 89.9619 6.5381C86.0958 2.67197 80.8522 0.5 75.3846 0.5H20.6154C15.1478 0.5 9.90423 2.67197 6.0381 6.5381C2.17197 10.4042 0 15.6478 0 21.1154V75.8846C0 81.3522 2.17197 86.5958 6.0381 90.4619C9.90423 94.328 15.1478 96.5 20.6154 96.5H75.3846C80.8522 96.5 86.0958 94.328 89.9619 90.4619ZM36.8902 44.7829C38.3542 40.7442 41.0381 37.9013 44.8428 35.9492C44.7855 35.9228 44.7418 35.901 44.7076 35.884C44.6298 35.8453 44.6012 35.831 44.5745 35.8428C44.4565 35.8476 44.3393 35.8631 44.2242 35.889C39.9214 36.9393 36.0104 38.762 32.6695 41.6872C27.3381 46.3598 25.1047 52.2032 26.3257 59.166C27.5355 66.0576 31.5831 70.939 37.8399 74.0126C42.9019 76.4994 48.2688 77.0602 53.7895 75.9687C58.9255 74.9526 63.0095 72.3333 65.7815 67.8663C68.099 64.1316 68.9241 59.9956 69 55.6731C68.9879 55.6027 68.9639 55.5349 68.9291 55.4724L68.8016 55.3982C66.9418 60.1511 63.8043 63.6782 59.0085 65.6795C58.9928 65.6073 58.9813 65.5342 58.974 65.4608C58.9738 65.1217 58.9736 64.7826 58.9734 64.4434C58.9714 61.5562 58.9694 58.6684 58.9811 55.7814C58.9968 55.5904 59.083 55.4119 59.2231 55.2798C59.695 54.8432 60.1769 54.418 60.6588 53.9928C60.8944 53.7849 61.13 53.577 61.3644 53.3678C62.111 52.7026 62.8566 52.0364 63.6062 51.3667C63.9463 51.0628 64.2872 50.7582 64.6294 50.4527C64.5951 50.4203 64.5645 50.3911 64.5362 50.3641C64.4769 50.3075 64.4281 50.2608 64.3773 50.2159C63.9824 49.8691 63.588 49.5218 63.1937 49.1746C61.9491 48.0788 60.7049 46.9834 59.4479 45.9024C59.2846 45.7782 59.1546 45.6162 59.0692 45.4306C58.9838 45.2451 58.9455 45.0416 58.9579 44.8381C58.9793 43.4215 58.9759 42.0055 58.9725 40.5896C58.9713 40.0663 58.97 39.543 58.97 39.0198V38.4871C59.1917 38.445 59.3567 38.4149 59.5218 38.3868C59.5496 38.3823 59.5777 38.3794 59.606 38.3764C59.6281 38.3741 59.6504 38.3718 59.6726 38.3688C62.1804 38.0257 64.2811 36.9523 65.8848 34.9801C67.9937 32.388 68.3126 28.4215 66.636 25.6669C64.6081 22.3354 59.8761 20.8959 56.1879 21.7335C56.1176 21.7497 56.059 21.8172 55.9801 21.9082C55.9363 21.9587 55.8862 22.0165 55.8244 22.0766C55.9553 22.0934 56.0872 22.1018 56.2193 22.1017C57.1466 22.0044 58.0639 21.9974 58.969 22.2863C60.4036 22.7447 61.2054 23.7268 61.2196 25.0851C61.2338 26.4433 60.3783 27.5919 58.9983 28.0403C57.8705 28.4065 56.7062 28.3323 55.6017 28.0574C53.4847 27.5307 51.3779 26.9419 49.3075 26.2597C48.9838 26.1529 48.6605 26.0452 48.3372 25.9374C45.4056 24.9602 42.4797 23.985 39.3575 23.7519C36.4022 23.5302 33.6424 24.0829 31.2278 25.8515C28.8496 27.5919 27.3371 29.8851 27.1923 32.8735C26.9736 37.3646 29.1199 39.3478 32.7039 40.6459C32.7442 40.659 32.791 40.6565 32.8694 40.6524C32.9228 40.6495 32.9909 40.6459 33.0815 40.6459C33.032 40.589 32.9879 40.5391 32.9481 40.494C32.8404 40.3723 32.7638 40.2856 32.6958 40.1905C32.5847 40.0337 32.4619 39.882 32.3394 39.7306C32.0697 39.3974 31.8013 39.0658 31.6621 38.6857C30.8785 36.541 32.0701 34.3672 34.3551 33.6399C35.6166 33.2387 36.8933 33.3931 38.1588 33.5847C40.4153 33.9282 42.5882 34.5873 44.7622 35.2468C45.2423 35.3924 45.7224 35.5381 46.2034 35.6803C49.0544 36.524 51.9124 37.3496 54.7948 38.0788C55.6008 38.2823 56.4401 38.3572 57.2885 38.4329C57.6784 38.4677 58.0703 38.5026 58.4618 38.5503C58.4749 38.5783 58.4822 38.6087 58.483 38.6396C58.4834 39.0411 58.484 39.4427 58.4845 39.8442C58.4871 41.6496 58.4897 43.455 58.4739 45.2604C58.4729 45.4379 58.3231 45.6566 58.1783 45.785C57.5692 46.3268 56.9511 46.8583 56.3331 47.3897C56.0471 47.6356 55.7612 47.8815 55.4762 48.1284C54.8309 48.6854 54.1878 49.2462 53.5382 49.8127C53.301 50.0196 53.063 50.2272 52.8236 50.4356C53.2852 50.8468 53.7436 51.2558 54.1998 51.6629C55.508 52.8302 56.7987 53.9819 58.0973 55.1243C58.3696 55.3681 58.4972 55.5938 58.4972 55.97C58.477 59.0797 58.477 62.1895 58.4972 65.2993C58.4992 65.7236 58.3686 65.9102 57.9637 66.0356C54.2137 67.1862 50.4141 67.4169 46.5892 66.5271C42.0738 65.4778 38.7187 62.9369 36.9651 58.6093C35.2329 54.3379 35.4141 49.9651 36.5997 45.5924C36.6442 45.4259 36.8558 45.2584 37.0309 45.1801C38.0325 44.7261 39.0422 44.2889 40.0518 43.8516C40.2291 43.7749 40.4063 43.6981 40.5835 43.6212C40.728 43.5583 40.8754 43.4994 41.0354 43.4354C41.1433 43.3922 41.2569 43.3467 41.3793 43.2962V64.1587L41.843 63.9581C42.1474 63.8252 42.4517 63.6924 42.7561 63.5595C45.3474 62.4284 47.9361 61.2985 50.5345 60.1862C50.9071 60.0267 51.0084 59.8301 51.0084 59.4429C51.0023 52.673 50.9993 45.9027 50.9993 39.1321V38.5413L36.8902 44.7829Z" fill="#8C8DB2"/>
</g>
<defs>
<clipPath id="clip0_715_2035">
<rect width="96" height="96" fill="white" transform="translate(0 0.5)"/>
</clipPath>
</defs>
</svg>
