<svg width="96" height="97" viewBox="0 0 96 97" fill="none" xmlns="http://www.w3.org/2000/svg">
<g clip-path="url(#clip0_715_2025)">
<path fill-rule="evenodd" clip-rule="evenodd" d="M89.9619 90.4619C93.828 86.5958 96 81.3522 96 75.8846V21.1154C96 15.6478 93.828 10.4042 89.9619 6.5381C86.0958 2.67197 80.8522 0.5 75.3846 0.5H20.6154C15.1478 0.5 9.90423 2.67197 6.0381 6.5381C2.17197 10.4042 0 15.6478 0 21.1154V75.8846C0 81.3522 2.17197 86.5958 6.0381 90.4619C9.90423 94.328 15.1478 96.5 20.6154 96.5H75.3846C80.8522 96.5 86.0958 94.328 89.9619 90.4619ZM40.5806 15.5H54.1043C54.2464 15.5258 54.3885 15.5513 54.5306 15.5768C55.0322 15.6668 55.5336 15.7568 56.0344 15.8617C60.2785 16.7501 62.4626 19.8694 61.8071 23.925C61.7545 24.2493 61.8504 24.4389 62.1501 24.6273C63.2509 25.2776 64.0503 26.3365 64.374 27.5734C64.4676 27.9199 64.5404 28.2726 64.6133 28.6253C64.6497 28.8016 64.6861 28.978 64.7251 29.1535V30.324C64.6747 30.6027 64.629 30.8824 64.5834 31.162L64.5833 31.1623C64.4859 31.7585 64.3886 32.3544 64.2452 32.94C63.3732 36.5076 61.3659 39.0862 57.7561 40.2063C56.1303 40.7119 54.4496 40.8266 52.7535 40.8067C51.7774 40.7962 51.3408 41.1953 51.1875 42.1516L50.9922 43.3736C50.6753 45.3586 50.3585 47.3432 50.0263 49.3254C49.8964 50.0979 49.3908 50.4959 48.6019 50.4959C46.7955 50.5014 44.9894 50.5014 43.1838 50.4959C42.4253 50.4959 42.1245 50.1623 42.2216 49.4062C42.3037 48.7755 42.3983 48.1465 42.4964 47.495V47.4949V47.4948V47.4947V47.4946V47.4945L42.4965 47.4942C42.5383 47.2163 42.5808 46.9342 42.6231 46.6462H41.936H36.1095C35.3206 46.6462 34.9015 46.178 35.0197 45.4196C35.7649 40.6503 36.5144 35.881 37.2682 31.1117C37.451 29.9519 37.6344 28.7922 37.8179 27.6325C38.3616 24.1953 38.9053 20.7584 39.4313 17.3189C39.5436 16.5078 39.8222 15.8664 40.5806 15.5ZM44.1904 36.4175L46.3675 23.2871H55.5791C55.5791 23.2871 58.7581 23.2871 60.0748 23.6535C61.4185 24.0281 61.7638 24.3101 61.7638 24.3101C61.7638 24.3101 61.9593 26.5095 59.6406 30.1894C58.9547 31.2791 58.1038 32.3325 55.9712 33.4995C53.9029 34.6325 51.198 34.972 49.8519 35.0024C49.0923 35.0199 47.7779 35.0246 46.7408 35.0258C46.2667 35.026 45.7993 35.1378 45.3763 35.3521C44.9534 35.5665 44.5868 35.8773 44.3062 36.2595L44.1904 36.4175ZM61.2586 57.5C61.3873 57.5245 61.5163 57.5471 61.6454 57.5698C61.9268 57.6191 62.2082 57.6684 62.485 57.7371C64.318 58.1914 65.3181 59.3868 65.3846 61.2685C65.4361 62.7206 65.1079 64.101 64.3644 65.3601C63.4914 66.8379 62.1408 67.6513 60.4773 67.8747C59.6774 67.9835 58.8642 67.9966 58.0521 68.0097H58.052H58.0519H58.0518H58.0504C57.7855 68.014 57.5206 68.0183 57.2564 68.0259C56.5381 68.0465 56.3228 68.2098 56.2088 68.9115C56.0033 70.1762 55.7988 71.441 55.5953 72.7057C55.5243 73.1439 55.349 73.298 54.9079 73.2997C54.0205 73.3039 53.1336 73.3039 52.2472 73.2997C51.7689 73.2997 51.5805 73.0941 51.6509 72.6198C51.7567 71.9054 51.8716 71.1921 51.9863 70.4795C52.0344 70.1809 52.0824 69.8824 52.1298 69.5839L52.9043 64.6905L53.736 59.4309C53.7431 59.3866 53.7504 59.3423 53.7578 59.298L53.7829 59.1486L53.783 59.1482V59.1481C53.8272 58.8865 53.8714 58.6251 53.8992 58.3615C53.9416 57.9554 54.1364 57.6741 54.5041 57.5023L61.2586 57.5ZM57.6464 64.8705L57.6469 64.8704H57.6471C58.2496 64.8355 58.8397 64.8013 59.4228 64.7168C60.1995 64.6022 60.7345 64.1119 60.9402 63.3461C61.0472 62.9437 61.0989 62.5286 61.0937 62.1122C61.0845 61.4031 60.7391 60.9386 60.0409 60.8217C59.4119 60.716 58.7657 60.7005 58.1232 60.6851C58.0343 60.683 57.9455 60.6809 57.8567 60.6785C57.5554 60.6711 57.4615 60.9254 57.422 61.1906C57.3777 61.4893 57.3295 61.7878 57.2814 62.0852C57.2586 62.2264 57.2358 62.3674 57.2135 62.5081L57.1491 62.9209L57.149 62.9215L57.1406 62.9754L57.1358 63.006L57.135 63.0114C57.0393 63.6244 56.9422 64.2472 56.8366 64.9219C57.1092 64.9016 57.379 64.886 57.6464 64.8705ZM21.0724 57.5839C20.9209 57.5572 20.7693 57.5304 20.6186 57.5H13.864C13.4281 57.6948 13.309 58.0705 13.2414 58.5053L11.6456 68.6296C11.5413 69.2902 11.4387 69.9508 11.3361 70.6115C11.2435 71.2073 11.151 71.8031 11.0573 72.3987C11.044 72.4426 11.0247 72.4844 11 72.523V72.9813C11.126 73.1737 11.287 73.3026 11.5333 73.3026C11.8972 73.3002 12.261 73.3012 12.6247 73.3022C13.1381 73.3036 13.6514 73.3049 14.1648 73.2969C14.635 73.2883 14.9255 73.0105 14.9988 72.5522C15.1939 71.3531 15.3848 70.1533 15.5716 68.9527C15.6861 68.2172 15.8969 68.0465 16.6416 68.0259C16.9042 68.0186 17.1676 68.0147 17.431 68.0108H17.4323H17.4324H17.4325C18.2368 67.999 19.0422 67.9872 19.8327 67.8764C21.7716 67.6049 23.2197 66.5813 24.0497 64.7718C24.5153 63.748 24.7621 62.6383 24.7743 61.5137C24.8081 59.62 23.8784 58.3483 22.0649 57.7996C21.7399 57.7019 21.4062 57.6429 21.0724 57.5839ZM16.9165 64.8155C16.6876 64.81 16.4572 64.8044 16.2252 64.8044H16.2274C16.2858 64.4299 16.3447 64.053 16.404 63.6745C16.535 62.8375 16.6673 61.9926 16.7962 61.1476C16.8386 60.8756 16.9715 60.6625 17.2694 60.6693C17.3868 60.6721 17.5045 60.6741 17.6222 60.6762C18.1712 60.6859 18.7221 60.6956 19.2622 60.7724C20.0922 60.8904 20.5269 61.4833 20.4868 62.3282C20.4746 62.6127 20.4345 62.8953 20.3671 63.1719C20.1231 64.1514 19.5257 64.6819 18.4127 64.7913C17.9202 64.8398 17.422 64.8277 16.9165 64.8155ZM83.9229 57.5C84.1755 57.6575 84.2666 57.866 84.2162 58.1736C84.0227 59.3537 83.838 60.5349 83.6532 61.7162C83.5799 62.1852 83.5065 62.6543 83.4326 63.1232C83.176 64.7542 82.9184 66.3852 82.6599 68.0162L82.5252 68.8677L82.5246 68.8714L82.5243 68.8739C82.3295 70.1061 82.1348 71.338 81.9307 72.5706C81.8511 73.0534 81.5721 73.2894 81.0904 73.2974C80.3469 73.3089 79.6022 73.3089 78.8565 73.2974C78.4555 73.2923 78.2607 73.0552 78.3215 72.6634C78.4478 71.8471 78.5779 71.0311 78.7079 70.2151L78.7092 70.2066L78.7106 70.1981C78.7783 69.7732 78.846 69.3484 78.9132 68.9235C79.1904 67.1707 79.4673 65.4177 79.7437 63.6646L80.5823 58.3495C80.5865 58.3225 80.5904 58.2954 80.594 58.2682C80.5965 58.2496 80.5989 58.231 80.6013 58.2123L80.6014 58.2118L80.6015 58.2113C80.6366 57.9402 80.6716 57.6703 80.9438 57.5H83.9229ZM33.5367 63.6243C33.5242 63.6968 33.5111 63.772 33.4973 63.851C32.8305 63.0995 32.5504 62.8887 31.8573 62.71C30.7014 62.4167 29.542 62.4007 28.3901 62.7444C25.1446 63.7176 23.4588 67.1435 24.0179 70.046C24.302 71.5198 25.0661 72.7015 26.544 73.217C28.5173 73.9021 30.3491 73.5693 31.9759 72.2318L32.1987 72.0473C32.1813 72.1727 32.166 72.2814 32.1519 72.3818C32.1371 72.4864 32.1237 72.5818 32.1105 72.6774C32.0607 73.0578 32.2377 73.2892 32.626 73.2949C33.4171 73.3075 34.2093 73.3104 34.9998 73.2949C35.4603 73.2857 35.7519 73.0234 35.828 72.5778C35.8972 72.1717 35.9593 71.7642 36.0215 71.3566V71.3562L36.0216 71.3559C36.0567 71.1256 36.0918 70.8952 36.1282 70.6652C36.407 68.9124 36.6846 67.1596 36.961 65.4068C36.9852 65.2535 37.0096 65.1002 37.0341 64.947C37.1188 64.4162 37.2036 63.8855 37.2738 63.3521C37.3265 62.9512 37.1409 62.757 36.7445 62.757C35.8773 62.7535 35.0097 62.7535 34.1417 62.757C33.8266 62.7581 33.6691 62.8939 33.6118 63.1992C33.5864 63.3372 33.5625 63.4751 33.5367 63.6243ZM29.1892 70.558C28.1925 70.298 27.6449 69.5539 27.6546 68.473H27.6524C27.6701 66.4476 29.5403 64.9858 31.469 65.4881C32.5418 65.7688 33.1398 66.6647 33.0408 67.8429C32.8809 69.7378 31.0348 71.0398 29.1892 70.558ZM72.8363 72.0316C72.0791 72.7384 71.2657 73.2007 70.3257 73.4C68.8868 73.7048 67.4903 73.6177 66.2588 72.7264C65.2426 71.9926 64.7122 70.9289 64.6028 69.7157C64.3616 67.0654 65.3165 64.9168 67.5568 63.4269C69.0707 62.4193 70.7559 62.2853 72.4938 62.7155C73.1594 62.8799 73.7236 63.2247 74.1177 63.9006C74.1341 63.8124 74.149 63.7305 74.1631 63.6531L74.1632 63.6529C74.1937 63.4849 74.2206 63.3377 74.2511 63.1915C74.3164 62.8787 74.4614 62.7578 74.7839 62.7567C75.6328 62.7544 76.4817 62.7544 77.3306 62.7567C77.7888 62.7567 77.9738 62.9572 77.9085 63.42C77.8441 63.8788 77.7694 64.3359 77.6948 64.7929C77.6638 64.9823 77.6329 65.1717 77.6026 65.3613C77.3426 66.9922 77.0833 68.6238 76.8248 70.2559C76.7812 70.5326 76.7384 70.8095 76.6957 71.0864C76.6212 71.5695 76.5467 72.0526 76.4673 72.5351C76.3866 73.0243 76.1036 73.2883 75.619 73.2975C74.8371 73.3118 74.0547 73.3095 73.2705 73.2975C72.8546 73.2918 72.6776 73.0512 72.7458 72.6393C72.7767 72.4675 72.8002 72.2957 72.8327 72.0582L72.8363 72.0316ZM68.2813 68.4916C68.2693 69.4293 68.7104 70.1373 69.5095 70.4581C69.982 70.6461 70.497 70.7014 70.9987 70.6179C72.5299 70.3773 73.5248 69.3377 73.6692 67.7951C73.7677 66.7423 73.2298 65.7565 72.0791 65.4844C70.1756 65.0348 68.3014 66.3877 68.2813 68.4916ZM44.4855 68.1823C44.3821 68.3344 44.2776 68.4881 44.1716 68.644C44.1095 68.4387 44.051 68.2461 43.9947 68.0604C43.9274 67.8388 43.8632 67.6272 43.7993 67.4159C43.3953 66.0793 42.9943 64.7428 42.5964 63.4062C42.4881 63.0442 42.2705 62.7756 41.885 62.7658C40.9633 62.7427 40.0433 62.7518 39.1244 62.7608L39.0782 62.7612C38.8027 62.7641 38.6211 62.98 38.64 63.2544C38.6533 63.3768 38.6823 63.497 38.7265 63.6119C39.6774 66.4049 40.6321 69.1965 41.5905 71.9869C41.6478 72.1547 41.6432 72.2773 41.5333 72.4274C41.1863 72.8976 40.8507 73.3739 40.515 73.8504C40.3906 74.0268 40.2663 74.2033 40.1413 74.3795C40.0291 74.538 39.9158 74.696 39.8025 74.8541C39.4893 75.2911 39.1756 75.7287 38.8812 76.1792C38.7884 76.319 38.7895 76.5539 38.8239 76.7303C38.8612 76.9243 39.0469 76.9235 39.2169 76.9228C39.227 76.9228 39.2372 76.9227 39.2472 76.9227C39.4071 76.922 39.567 76.9212 39.727 76.9203C40.4835 76.916 41.2401 76.9118 41.9967 76.9279C42.3043 76.9342 42.5025 76.8133 42.6651 76.5796C45.6708 72.2492 48.6786 67.9178 51.6886 63.5855C51.8186 63.4011 51.865 63.2017 51.7613 63.0001C51.6576 62.7985 51.4738 62.7509 51.2567 62.7509C50.4152 62.7595 49.5755 62.767 48.7363 62.7509C48.3405 62.7435 48.073 62.9016 47.8571 63.2229C47.3251 64.0156 46.7869 64.8042 46.2486 65.5929C46.0253 65.9201 45.8019 66.2474 45.579 66.575C45.2191 67.1032 44.8596 67.632 44.4855 68.1823Z" fill="#8C8DB2"/>
</g>
<defs>
<clipPath id="clip0_715_2025">
<rect width="96" height="96" fill="white" transform="translate(0 0.5)"/>
</clipPath>
</defs>
</svg>
