<svg width="1280" height="800" viewBox="0 0 1280 800" fill="none" xmlns="http://www.w3.org/2000/svg">
<g clip-path="url(#clip0_783_3049)">
<rect width="1280" height="800" fill="#21243A"/>
<path d="M-321 418C-321 444.51 -299.51 466 -273 466H70C226.858 449.101 261.6 379.305 45.4009 -99.8623C38.4519 -115.264 23.7162 -126.143 6.92317 -128.009L-123.125 -142.458C-126.367 -142.819 -129.636 -142.847 -132.883 -142.545L-277.457 -129.061C-302.133 -126.76 -321 -106.051 -321 -81.2684V418Z" fill="white" fill-opacity="0.05"/>
<path d="M-258 667C-258 640.49 -236.51 619 -210 619H133C289.858 635.899 324.6 705.695 108.401 1184.86C101.452 1200.26 86.7162 1211.14 69.9232 1213.01L-60.1254 1227.46C-63.3667 1227.82 -66.6363 1227.85 -69.8834 1227.54L-214.457 1214.06C-239.133 1211.76 -258 1191.05 -258 1166.27V667Z" fill="white" fill-opacity="0.05"/>
<path d="M1195.51 -87.2323C1201.46 -106.93 1219.85 -120 1240.42 -120H1549C1575.51 -120 1597 -98.5097 1597 -72V401.12C1597 420.938 1584.85 438.847 1566.12 445.308C1423.82 494.379 1284.34 500.214 1206 434C1126.26 366.602 1133.04 119.512 1195.51 -87.2323Z" fill="white" fill-opacity="0.05"/>
<path d="M710.001 640C791.691 589.127 1190.65 423.219 1483.68 625.975C1496.01 634.503 1503 648.798 1503 663.786V899C1503 925.509 1481.51 947 1455 947H733.069C718.488 947 704.452 940.531 696.6 928.244C638.463 837.262 632.127 688.496 710.001 640Z" fill="white" fill-opacity="0.05"/>
</g>
<defs>
<clipPath id="clip0_783_3049">
<rect width="1280" height="800" fill="white"/>
</clipPath>
</defs>
</svg>
