<svg width="18" height="19" viewBox="0 0 18 19" fill="none" xmlns="http://www.w3.org/2000/svg">
<path d="M12.75 2.25H5.25C3.17893 2.25 1.5 3.92893 1.5 6V13.5C1.5 15.5711 3.17893 17.25 5.25 17.25H12.75C14.8211 17.25 16.5 15.5711 16.5 13.5V6C16.5 3.92893 14.8211 2.25 12.75 2.25Z" stroke="white" stroke-width="1.5" stroke-linecap="round" stroke-linejoin="round"/>
<path d="M12 9.27773C12.0926 9.90191 11.986 10.5394 11.6953 11.0995C11.4047 11.6596 10.9449 12.1138 10.3812 12.3975C9.8176 12.6812 9.17886 12.7799 8.55586 12.6797C7.93287 12.5794 7.35734 12.2853 6.91115 11.8391C6.46496 11.3929 6.17082 10.8174 6.07058 10.1944C5.97033 9.57139 6.06907 8.93265 6.35277 8.36901C6.63647 7.80537 7.09066 7.34553 7.65076 7.05491C8.21086 6.76428 8.84834 6.65767 9.47252 6.75023C10.1092 6.84464 10.6987 7.14132 11.1538 7.59646C11.6089 8.05159 11.9056 8.64103 12 9.27773Z" stroke="white" stroke-width="1.5" stroke-linecap="round" stroke-linejoin="round"/>
<path d="M13.125 5.625H13.1325" stroke="white" stroke-width="1.5" stroke-linecap="round" stroke-linejoin="round"/>
</svg>
