<svg width="519" height="92" viewBox="0 0 519 92" fill="none" xmlns="http://www.w3.org/2000/svg">
<path d="M304.717 91.2705L298.322 2H310.856L315.46 76.8184H316.483L326.587 23.6142H340.783L350.887 76.8184H351.91L353.317 53.9253L356.642 2H368.664L362.269 91.2705H343.085L334.005 39.6011H332.981L323.901 91.2705H304.717Z" fill="white"/>
<path d="M382.81 91.2705V2H438.7V14.0221H397.135V39.9847H437.166V52.0068H397.135V79.2484H438.7V91.2705H382.81Z" fill="white"/>
<path d="M459.114 2H489.936C498.036 2 504.303 4.08895 508.737 8.26684C513.256 12.4447 515.515 18.1574 515.515 25.4047C515.515 30.6058 514.236 34.7411 511.678 37.8105C509.12 40.88 505.667 43.0542 501.319 44.3332V44.9726C506.52 46.1663 510.698 48.4684 513.853 51.8789C517.007 55.2042 518.585 59.9363 518.585 66.0753C518.585 69.7416 517.988 73.1095 516.794 76.1789C515.6 79.2484 513.895 81.9342 511.678 84.2363C509.461 86.4532 506.776 88.2011 503.621 89.48C500.551 90.6737 497.141 91.2705 493.389 91.2705H459.114V2ZM489.041 80.2716C493.816 80.2716 497.482 79.2911 500.04 77.33C502.598 75.3689 503.877 72.2142 503.877 67.8658V63.2616C503.877 58.9132 502.598 55.7584 500.04 53.7974C497.482 51.8363 493.816 50.8558 489.041 50.8558H473.182V80.2716H489.041ZM486.995 40.3684C491.514 40.3684 494.924 39.5158 497.226 37.8105C499.614 36.02 500.807 33.0784 500.807 28.9858V24.3816C500.807 20.2889 499.614 17.39 497.226 15.6847C494.924 13.8942 491.514 12.9989 486.995 12.9989H473.182V40.3684H486.995Z" fill="white"/>
<path d="M286.851 28.2647L278.922 36.1942L269.33 26.4742L264.214 20.4632L263.702 20.5911L264.47 32.1016V90.8053H252.703V32.1016L253.471 20.5911L252.959 20.4632L247.843 26.4742L238.251 36.1942L230.322 28.2647L258.587 0L286.851 28.2647Z" fill="#FF3B22"/>
<path d="M13.6847 22.3205H12.5337V91H0V1.72949H18.4168L44.6353 70.409H45.7863V1.72949H58.32V91H39.9032L13.6847 22.3205Z" fill="white"/>
<path d="M78.4774 91V1.72949H134.367V13.7516H92.8016V39.7142H132.833V51.7363H92.8016V78.9779H134.367V91H78.4774Z" fill="white"/>
<path d="M218.6 91H202.357L192.254 73.3505L182.79 56.4684H182.022L172.302 73.3505L161.815 91H146.595L173.965 45.2137L148.258 1.72949H164.501L173.581 17.7163L182.79 34.2148H183.429L192.637 17.7163L202.102 1.72949H217.321L191.486 45.2137L218.6 91Z" fill="white"/>
</svg>
