<svg width="81" height="56" viewBox="0 0 81 56" fill="none" xmlns="http://www.w3.org/2000/svg">
<path opacity="0.2" d="M15.4758 55.6074C10.194 55.6074 6.32925 54.3852 3.88158 51.9407C1.56274 49.3677 0.40332 46.2156 0.40332 42.4846V38.8179C0.40332 35.3443 0.918618 31.8706 1.94921 28.3969C2.97981 24.7946 4.33247 21.3209 6.00718 17.9758C7.81073 14.6308 9.93633 11.4788 12.384 8.51969C14.8317 5.56063 17.4726 2.9232 20.3067 0.607422H36.9251C32.8027 4.59572 29.3244 8.5197 26.4903 12.3793C23.6561 16.239 21.5305 20.5489 20.1135 25.3092C23.8494 26.0811 26.5547 27.6893 28.2294 30.1337C29.9041 32.4495 30.7415 35.1513 30.7415 38.239V42.4846C30.7415 46.2156 29.5177 49.3677 27.07 51.9407C24.7511 54.3852 20.8864 55.6074 15.4758 55.6074ZM58.954 55.6074C53.6722 55.6074 49.8075 54.3852 47.3598 51.9407C45.041 49.3677 43.8816 46.2156 43.8816 42.4846V38.8179C43.8816 35.3443 44.3969 31.8706 45.4275 28.3969C46.4581 24.7946 47.8107 21.3209 49.4854 17.9758C51.289 14.6308 53.4146 11.4788 55.8623 8.51969C58.3099 5.56063 60.9508 2.9232 63.785 0.607422H80.4033C76.2809 4.59572 72.8027 8.5197 69.9685 12.3793C67.1344 16.239 65.0088 20.5489 63.5917 25.3092C67.3276 26.0811 70.033 27.6893 71.7077 30.1337C73.3824 32.4495 74.2198 35.1513 74.2198 38.239V42.4846C74.2198 46.2156 72.9959 49.3677 70.5482 51.9407C68.2294 54.3852 64.3647 55.6074 58.954 55.6074Z" fill="white"/>
</svg>
